Coordinates
version=1
nRows=15
nColumns=34
inDegrees=no

Units are S.I. units (second, meters, Newtons, ...)
If the header above contains a line with 'inDegrees', this indicates whether rotational values are in degrees (yes) or radians (no).

endheader
time	pelvis_tilt	pelvis_list	pelvis_rotation	pelvis_tx	pelvis_ty	pelvis_tz	hip_flexion_r	hip_adduction_r	hip_rotation_r	knee_angle_r	ankle_angle_r	subtalar_angle_r	mtp_angle_r	hip_flexion_l	hip_adduction_l	hip_rotation_l	knee_angle_l	ankle_angle_l	subtalar_angle_l	mtp_angle_l	lumbar_extension	lumbar_bending	lumbar_rotation	arm_flex_r	arm_add_r	arm_rot_r	elbow_flex_r	pro_sup_r	arm_flex_l	arm_add_l	arm_rot_l	elbow_flex_l	pro_sup_l
0.87	0.276119	0.129303	-0.0835686	0.954136	0.924342	-0.23943	0.301728	-0.250505	-0.0112805	1.20611	0.0214141	-0.209245	-0.135261	-0.241619	0.215184	-0.16894	0.191252	0.249792	0.0991357	-0.135305	-0.527391	-0.16805	-0.122788	0.140857	-0.157222	0.0532583	0.443873	1.02925	0.27844	-0.303937	0.291209	0.551683	0.956624
0.88	0.279428	0.127985	-0.0759884	0.966708	0.924876	-0.240233	0.309185	-0.250916	-0.025523	1.16163	0.0332915	-0.205043	-0.135251	-0.270987	0.215461	-0.158489	0.174879	0.251039	0.105985	-0.135294	-0.532129	-0.162488	-0.13571	0.133187	-0.157984	0.0458997	0.437781	1.01731	0.299533	-0.309967	0.291077	0.570093	0.960935
0.89	0.282648	0.126756	-0.0691535	0.97931	0.925174	-0.240903	0.313627	-0.250966	-0.0408912	1.11081	0.0425111	-0.203443	-0.135241	-0.300517	0.215366	-0.149624	0.158129	0.252425	0.114098	-0.135282	-0.536446	-0.157544	-0.147398	0.125478	-0.158858	0.0384159	0.431986	1.00475	0.320548	-0.315853	0.290758	0.587861	0.967398
0.9	0.285808	0.125337	-0.0631747	0.991951	0.925243	-0.241419	0.314811	-0.250027	-0.0575108	1.0534	0.048877	-0.204042	-0.13523	-0.330169	0.214646	-0.142667	0.141192	0.25417	0.123741	-0.135271	-0.540368	-0.153015	-0.157673	0.117829	-0.15983	0.0309447	0.426361	0.992135	0.341369	-0.321578	0.290647	0.604983	0.975945
0.91	0.288897	0.123466	-0.0580588	1.00464	0.925092	-0.241767	0.312539	-0.247511	-0.0755666	0.989207	0.0524691	-0.206041	-0.13522	-0.359813	0.213057	-0.137819	0.124341	0.25647	0.135069	-0.13526	-0.543896	-0.148677	-0.166447	0.110321	-0.160871	0.0235667	0.42079	0.98006	0.361886	-0.32713	0.291022	0.621506	0.986371
0.92	0.291874	0.120939	-0.0537226	1.01739	0.924727	-0.241941	0.306706	-0.242929	-0.0952004	0.918169	0.0536824	-0.208258	-0.13521	-0.389225	0.210394	-0.135165	0.107914	0.259476	0.14812	-0.135249	-0.547003	-0.144324	-0.173726	0.103009	-0.161935	0.0163094	0.415167	0.969014	0.381993	-0.332508	0.292033	0.637515	0.998331
0.93	0.294654	0.117643	-0.050013	1.03021	0.924149	-0.241939	0.297357	-0.23594	-0.116387	0.840496	0.0532083	-0.209215	-0.135199	-0.418087	0.206517	-0.134682	0.0923044	0.263294	0.162823	-0.135238	-0.549625	-0.139802	-0.179608	0.0959312	-0.162958	0.00915663	0.409397	0.959349	0.401598	-0.337727	0.29372	0.653132	1.01136
0.94	0.297116	0.113579	-0.046729	1.04312	0.923358	-0.24177	0.284743	-0.226389	-0.138807	0.756769	0.0519554	-0.207303	-0.135189	-0.445984	0.201364	-0.136251	0.0779612	0.267967	0.179001	-0.135227	-0.551658	-0.135038	-0.184269	0.0891142	-0.163862	0.00206143	0.403402	0.951234	0.420617	-0.342815	0.296048	0.668498	1.02491
0.95	0.299096	0.108854	-0.043641	1.05612	0.922349	-0.241451	0.269366	-0.214336	-0.16175	0.668049	0.0509223	-0.201032	-0.135179	-0.472404	0.194962	-0.139666	0.0653912	0.273484	0.196372	-0.135216	-0.552959	-0.130047	-0.187956	0.0825786	-0.164564	-0.00503737	0.397119	0.944667	0.43898	-0.347812	0.298948	0.683752	1.03842
0.96	0.300388	0.10367	-0.0405106	1.06923	0.921111	-0.241003	0.251992	-0.200066	-0.184067	0.575955	0.0510435	-0.189316	-0.135168	-0.496756	0.187414	-0.144652	0.0551639	0.279781	0.214574	-0.135205	-0.553354	-0.12493	-0.190958	0.0763509	-0.164984	-0.0121979	0.390508	0.939499	0.456635	-0.352762	0.30235	0.699013	1.05138
0.97	0.300758	0.098286	-0.0371105	1.08247	0.919649	-0.24046	0.23362	-0.184073	-0.204225	0.482671	0.0530401	-0.171738	-0.135158	-0.518417	0.178875	-0.150895	0.047901	0.286759	0.233196	-0.135194	-0.552665	-0.119832	-0.193587	0.0704705	-0.165059	-0.0194589	0.38355	0.935481	0.473541	-0.357697	0.306201	0.714361	1.06337
0.98	0.299986	0.0929763	-0.0332385	1.09585	0.91797	-0.23986	0.215401	-0.167017	-0.220464	0.39087	0.0573073	-0.148723	-0.135148	-0.536801	0.169502	-0.158102	0.0442446	0.294297	0.251857	-0.135183	-0.550745	-0.114897	-0.196138	0.0649944	-0.164765	-0.026829	0.376254	0.932326	0.489666	-0.362623	0.310462	0.729826	1.07413
0.99	0.297927	0.0879665	-0.0287298	1.10939	0.916079	-0.239222	0.19849	-0.149641	-0.231076	0.303538	0.0638614	-0.121532	-0.135138	-0.551472	0.159408	-0.166063	0.0447955	0.302271	0.270292	-0.135172	-0.547524	-0.110201	-0.198854	0.0599924	-0.164122	-0.0342838	0.368654	0.929752	0.504971	-0.367499	0.315086	0.745381	1.08359
1	0.294574	0.0833714	-0.0234721	1.1231	0.914005	-0.238559	0.183874	-0.13267	-0.234734	0.223712	0.0723483	-0.0920671	-0.135127	-0.56226	0.148616	-0.174712	0.050023	0.310555	0.28843	-0.135161	-0.543053	-0.105712	-0.20189	0.0555336	-0.163212	-0.0417729	0.360814	0.927523	0.519395	-0.372229	0.319995	0.760938	1.0918
1.01	0.290101	0.0791584	-0.0174234	1.13697	0.911802	-0.237882	0.172203	-0.116688	-0.230811	0.154155	0.0820911	-0.0625471	-0.135117	-0.56935	0.137035	-0.184142	0.0601593	0.319003	0.306411	-0.13515	-0.537534	-0.101261	-0.205275	0.0516649	-0.162166	-0.0492334	0.35282	0.92547	0.532827	-0.376665	0.325063	0.776357	1.099
